<svg id="visual" viewBox="0 0 900 600" width="900" height="600" xmlns="http://www.w3.org/2000/svg" xmlns:xlink="http://www.w3.org/1999/xlink" version="1.1"><rect x="0" y="0" width="900" height="600" fill="#ede9fc"></rect><defs><linearGradient id="grad1_0" x1="33.3%" y1="0%" x2="100%" y2="100%"><stop offset="20%" stop-color="#ede9fc" stop-opacity="1"></stop><stop offset="80%" stop-color="#ede9fc" stop-opacity="1"></stop></linearGradient></defs><defs><linearGradient id="grad2_0" x1="0%" y1="0%" x2="66.7%" y2="100%"><stop offset="20%" stop-color="#ede9fc" stop-opacity="1"></stop><stop offset="80%" stop-color="#ede9fc" stop-opacity="1"></stop></linearGradient></defs><g transform="translate(900, 0)"><path d="M0 486.7C-65 481.2 -129.9 475.7 -186.3 449.7C-242.6 423.7 -290.3 377.3 -328.8 328.8C-367.3 280.3 -396.5 229.7 -421.3 174.5C-446.1 119.4 -466.4 59.7 -486.7 0L0 0Z" fill="#734de5"></path></g><g transform="translate(0, 600)"><path d="M0 -486.7C69.6 -481.6 139.3 -476.4 181.4 -437.9C223.5 -399.4 238.2 -327.6 285 -285C331.8 -242.3 410.7 -228.9 449.7 -186.3C488.7 -143.6 487.7 -71.8 486.7 0L0 0Z" fill="#734de5"></path></g></svg>